<?xml version="1.0" standalone="no"?>
<!DOCTYPE svg PUBLIC "-//W3C//DTD SVG 1.1//EN" "http://www.w3.org/Graphics/SVG/1.1/DTD/svg11.dtd" >
<svg xmlns="http://www.w3.org/2000/svg">
<metadata></metadata>
<defs>
<font id="futura_t_otdemi" horiz-adv-x="1161" >
<font-face units-per-em="2048" ascent="1638" descent="-410" />
<missing-glyph horiz-adv-x="512" />
<glyph unicode="&#xfb01;" horiz-adv-x="1060" d="M31 672v215h96v284q0 97 18.5 158.5t63.5 112.5q51 56 120 86.5t142 30.5q65 0 131 -31v-225q-68 32 -113 32q-31 0 -59.5 -17.5t-38.5 -43.5q-16 -39 -16 -139v-248h227v-215h-227v-672h-248v672h-96zM674 1264q0 60 44 103.5t105 43.5q62 0 106 -44t44 -105 q0 -62 -44.5 -106t-105.5 -44q-62 0 -105.5 44.5t-43.5 107.5zM698 0v887h248v-887h-248z" />
<glyph unicode="&#xfb02;" horiz-adv-x="1067" d="M31 672v215h96v284q0 97 18.5 157t63.5 112q107 116 264 116q64 0 129 -28v-225q-66 30 -113 30q-31 0 -59.5 -17.5t-38.5 -43.5q-16 -36 -16 -137v-248h227v-215h-227v-672h-248v672h-96zM698 0v1534h248v-1534h-248z" />
<glyph horiz-adv-x="2048" />
<glyph horiz-adv-x="2048" />
<glyph unicode="&#xd;" horiz-adv-x="2048" />
<glyph unicode=" "  horiz-adv-x="512" />
<glyph unicode="&#x09;" horiz-adv-x="512" />
<glyph unicode="&#xa0;" horiz-adv-x="512" />
<glyph unicode="!" horiz-adv-x="512" d="M96 135q0 66 47.5 113t112.5 47q67 0 114.5 -47t47.5 -113q0 -67 -47 -114.5t-113 -47.5q-68 0 -115 47.5t-47 114.5zM129 391v975h256v-975h-256z" />
<glyph unicode="&#x22;" horiz-adv-x="804" d="M82 1366h258l-39 -563h-180zM465 1366h258l-39 -563h-182z" />
<glyph unicode="#" horiz-adv-x="1116" d="M25 401v191h221l26 209h-198v192h221l49 393l193 -26l-45 -367h215l49 393l192 -26l-47 -367h193v-192h-213l-27 -209h190v-193h-215l-51 -419l-192 26l49 393h-217l-53 -419l-195 26l49 395h-194zM440 592h217l25 209h-215z" />
<glyph unicode="$" d="M96 246l152 155q69 -94 142.5 -137t164.5 -43q86 0 144.5 52t58.5 128q0 65 -40.5 105t-150.5 86q-192 81 -254 131q-57 44 -87.5 111.5t-30.5 146.5q0 95 46 181.5t124 137.5q67 46 172 62v197h127v-197q97 -11 171 -46.5t144 -107.5l-135 -172q-99 111 -221 111 q-71 0 -121.5 -41.5t-50.5 -99.5q0 -66 77 -119q26 -18 146 -66q170 -69 246 -139q104 -93 104 -256q0 -160 -95 -271t-265 -151v-207h-127v199q-281 12 -441 250z" />
<glyph unicode="%" horiz-adv-x="1587" d="M61 1063q0 136 100 227.5t249 91.5t247.5 -91.5t98.5 -229.5q0 -141 -99 -233.5t-251 -92.5q-149 0 -247 93t-98 235zM231 1061q0 -75 52.5 -127.5t126.5 -52.5q72 0 124 52.5t52 125.5q0 72 -52.5 124t-125.5 52q-72 0 -124.5 -51.5t-52.5 -122.5zM332 6l813 1405 l108 -61l-813 -1407zM834 307q0 135 99.5 226.5t248.5 91.5q148 0 246 -92t98 -230q0 -140 -98.5 -231.5t-249.5 -91.5t-247.5 92t-96.5 235zM1004 305q0 -75 51.5 -127.5t124.5 -52.5q72 0 124 52.5t52 125.5q0 72 -52 124t-124 52t-124 -51.5t-52 -122.5z" />
<glyph unicode="&#x26;" horiz-adv-x="1454" d="M109 360q0 139 92 248q36 41 61 59.5t135 82.5q3 3 37 22q-76 84 -107.5 149.5t-31.5 137.5q0 148 105.5 243t269.5 95q158 0 264 -94.5t106 -235.5q0 -97 -60 -178t-189 -156l225 -258q107 107 168 189l157 -154q-35 -47 -66.5 -82t-111.5 -115l277 -313h-330l-135 154 q-118 -97 -222.5 -141t-213.5 -44q-186 0 -308 111t-122 280zM377 393q0 -76 60.5 -132t142.5 -56q57 0 113.5 27t133.5 90l-258 296q-109 -71 -150.5 -120t-41.5 -105zM545 1077q0 -41 20.5 -75.5t98.5 -127.5q89 60 122 102t33 95q0 60 -38.5 97.5t-100.5 37.5 q-58 0 -96.5 -36.5t-38.5 -92.5z" />
<glyph unicode="'" horiz-adv-x="421" d="M82 1366h258l-39 -563h-180z" />
<glyph unicode="(" horiz-adv-x="653" d="M137 621q0 266 53 515t150 433l199 -109q-166 -355 -166 -848q0 -240 44.5 -467t121.5 -385l-199 -108q-49 93 -77.5 169.5t-51.5 178.5q-74 310 -74 621z" />
<glyph unicode=")" horiz-adv-x="653" d="M117 -240q166 355 166 848q0 240 -44.5 467t-121.5 385l198 109q49 -93 77.5 -169.5t51.5 -178.5q74 -310 74 -621q0 -266 -53 -515t-150 -433z" />
<glyph unicode="*" d="M236 1214l59 181l233 -121l-43 260h189l-43 -260l233 121l60 -181l-260 -38l186 -185l-152 -112l-118 235l-119 -235l-154 110l189 185z" />
<glyph unicode="+" d="M123 600v164h375v377h164v-377h376v-164h-376v-375h-164v375h-375z" />
<glyph unicode="," horiz-adv-x="512" d="M8 -268l219 551l228 -27l-289 -543z" />
<glyph unicode="-" horiz-adv-x="460" d="M0 367v206h461v-206h-461z" />
<glyph unicode="." horiz-adv-x="512" d="M96 135q0 66 47.5 113t112.5 47q67 0 114.5 -47t47.5 -113q0 -67 -47 -114.5t-113 -47.5q-68 0 -115 47.5t-47 114.5z" />
<glyph unicode="/" horiz-adv-x="952" d="M-59 -281l772 1850l172 -68l-774 -1849z" />
<glyph unicode="0" d="M51 694q0 305 142 498q74 100 175.5 154.5t213.5 54.5t212 -54t175 -155q141 -191 141 -508q0 -310 -141 -510q-72 -98 -174.5 -153.5t-212.5 -55.5q-113 0 -215 54.5t-174 154.5q-142 200 -142 520zM317 690q0 -217 74 -353t191 -136q114 0 188 135.5t74 347.5 q0 210 -74 345.5t-188 135.5q-115 0 -190 -134.5t-75 -340.5z" />
<glyph unicode="1" d="M268 1135v231h463v-1366h-266v1135h-197z" />
<glyph unicode="2" d="M35 0l403 457q187 213 250.5 314t63.5 187q0 88 -60.5 147.5t-148.5 59.5q-91 0 -144.5 -59.5t-56.5 -165.5h-285q13 212 143 336.5t337 124.5t344 -125.5t137 -314.5q0 -114 -58.5 -227t-189.5 -251l-238 -252h496v-231h-993z" />
<glyph unicode="3" d="M49 393h266q12 -91 72 -141.5t154 -50.5q95 0 157 61t62 154q0 92 -61 154.5t-150 62.5q-11 0 -51 -4v190h37q86 0 137 51.5t51 137.5q0 78 -51.5 129t-132.5 51q-78 0 -125.5 -45.5t-57.5 -132.5h-252q28 192 143 291.5t310 99.5q188 0 303 -104.5t115 -274.5 q0 -103 -36.5 -170t-121.5 -121q50 -20 77 -38.5t50 -47.5q82 -97 82 -246q0 -193 -135 -313.5t-352 -120.5q-142 0 -252 59.5t-178 172.5q-31 52 -45 96t-15 100z" />
<glyph unicode="4" d="M43 242v118l676 1031h239v-936h162v-213h-162v-242h-247v242h-668zM358 455h353v542z" />
<glyph unicode="5" d="M53 143l88 232q149 -174 342 -174q114 0 194.5 76.5t80.5 185.5q0 115 -90.5 194.5t-221.5 79.5q-137 0 -262 -88h-14l162 717h631v-231h-451l-53 -213q63 8 100 8q200 0 332.5 -135.5t132.5 -339.5q0 -217 -149.5 -353.5t-385.5 -136.5q-258 0 -436 178z" />
<glyph unicode="6" d="M61 434q0 200 172 432l416 555l189 -141l-324 -416q86 35 160 35q178 0 301 -130.5t123 -319.5q0 -214 -145 -349t-375 -135q-226 0 -371.5 132t-145.5 337zM328 432q0 -107 73.5 -181.5t180.5 -74.5q103 0 176 74t73 178q0 109 -71.5 183.5t-177.5 74.5 q-105 0 -179.5 -74.5t-74.5 -179.5z" />
<glyph unicode="7" d="M94 1135v231h1053l-830 -1405l-215 127l625 1047h-633z" />
<glyph unicode="8" d="M106 373q0 155 103 258q31 28 60 45.5t81 38.5q-196 99 -196 301q0 167 123 276t311 109q186 0 305 -109t119 -278q0 -103 -49.5 -175.5t-153.5 -123.5q246 -96 246 -338q0 -180 -132.5 -296t-336.5 -116q-207 0 -343.5 115.5t-136.5 292.5zM373 393q0 -90 61 -153.5 t148 -63.5q85 0 145.5 63.5t60.5 151.5q0 89 -60 151t-148 62q-85 0 -146 -62.5t-61 -148.5zM393 1016q0 -80 56 -136.5t135 -56.5q78 0 133 56.5t55 134.5q0 79 -56 135.5t-134 56.5q-76 0 -132.5 -56.5t-56.5 -133.5z" />
<glyph unicode="9" d="M61 920q0 211 147 346t376 135q224 0 369 -131.5t145 -335.5q0 -99 -44.5 -212.5t-127.5 -221.5l-414 -557l-188 143l321 414q-87 -33 -160 -33q-178 0 -301 131t-123 322zM328 938q0 -107 74 -182.5t180 -75.5q104 0 176.5 75t72.5 181q0 107 -72.5 180.5t-178.5 73.5 q-103 0 -177.5 -74.5t-74.5 -177.5z" />
<glyph unicode=":" horiz-adv-x="512" d="M96 135q0 66 47.5 113t112.5 47q67 0 114.5 -47t47.5 -113q0 -67 -47 -114.5t-113 -47.5q-68 0 -115 47.5t-47 114.5zM96 758q0 66 47.5 113t112.5 47q67 0 114.5 -47t47.5 -113q0 -67 -47 -114.5t-113 -47.5q-68 0 -115 47t-47 115z" />
<glyph unicode=";" horiz-adv-x="512" d="M-4 -268l219 551l227 -27l-288 -543zM160 756q0 66 47 112.5t112 46.5q67 0 114.5 -46.5t47.5 -112.5q0 -67 -46.5 -114.5t-112.5 -47.5q-68 0 -115 47t-47 115z" />
<glyph unicode="&#x3c;" horiz-adv-x="1024" d="M68 573v224l886 450v-262l-606 -301l606 -303v-262z" />
<glyph unicode="=" d="M123 444v164h915v-164h-915zM123 756v164h915v-164h-915z" />
<glyph unicode="&#x3e;" horiz-adv-x="1024" d="M68 119v264l606 301l-606 301v262l886 -452v-224z" />
<glyph unicode="?" horiz-adv-x="1001" d="M88 1028q0 151 122.5 258t295.5 107q172 0 292 -112t120 -273q0 -140 -89 -239.5t-249 -137.5v-174h-252v360q47 -8 71 -8q112 0 184 58t72 147q0 68 -44.5 112.5t-112.5 44.5q-62 0 -104 -42t-42 -103q0 -15 2 -25h-264q-2 12 -2 27zM297 135q0 66 47.5 113t112.5 47 q67 0 114 -47t47 -113q0 -67 -46.5 -114.5t-112.5 -47.5q-67 0 -114.5 47.5t-47.5 114.5z" />
<glyph unicode="@" horiz-adv-x="1564" d="M74 682q0 149 57 281.5t155 227.5t235.5 150.5t291.5 55.5q190 0 345.5 -81.5t244 -223.5t88.5 -316q0 -133 -49.5 -249t-133.5 -184.5t-180 -68.5q-54 0 -95.5 27.5t-61.5 77.5q-100 -109 -234 -109q-146 0 -242 109.5t-96 275.5q0 172 106.5 287t266.5 115 q69 0 129.5 -24t91.5 -62l8 69h173l-56 -465q-6 -49 -6 -94q0 -53 35 -53q46 0 90.5 49t72 128.5t27.5 162.5q0 210 -147 345.5t-375 135.5q-117 0 -221.5 -44t-179.5 -119.5t-118.5 -180t-43.5 -221.5q0 -154 72 -283.5t198 -201.5q127 -74 312 -74q116 0 206 22t209 80 l33 17l59 -150q-145 -71 -255 -98t-252 -27q-232 0 -406 97q-164 94 -259 259t-95 357zM592 647q0 -88 44 -144.5t112 -56.5q88 0 155.5 76t67.5 174q0 78 -53 130.5t-134 52.5q-83 0 -137.5 -65.5t-54.5 -166.5z" />
<glyph unicode="A" horiz-adv-x="1372" d="M2 0l592 1395h201l573 -1395h-285l-116 289h-559l-123 -289h-283zM494 504h389l-191 491z" />
<glyph unicode="B" horiz-adv-x="1167" d="M158 0v1366h338q229 0 333 -82q57 -44 90 -118.5t33 -159.5q0 -114 -51 -195q-29 -39 -98 -82q68 -15 106 -33.5t72 -52.5q46 -46 72 -114.5t26 -143.5q0 -81 -32 -154.5t-89 -126.5q-116 -104 -340 -104h-460zM424 215h115q127 0 186 37q37 22 58.5 63t21.5 88 q0 48 -21 88.5t-59 63.5q-35 23 -76 31t-125 8h-100v-379zM424 797h76q207 0 207 178q0 86 -51.5 131t-151.5 45h-80v-354z" />
<glyph unicode="C" horiz-adv-x="1232" d="M88 676q0 196 96.5 362t262.5 262.5t362 96.5q165 0 334 -84v-314q-84 82 -161.5 118t-172.5 36q-189 0 -318 -137t-129 -338q0 -199 129.5 -332t323.5 -133q95 0 170.5 34.5t157.5 114.5v-313q-170 -80 -334 -80q-148 0 -281.5 55.5t-230 149.5t-153 225t-56.5 277z" />
<glyph unicode="D" horiz-adv-x="1370" d="M158 0v1366h391q297 0 489 -158q115 -94 179.5 -232t64.5 -292q0 -152 -65.5 -290.5t-182.5 -235.5q-99 -83 -215 -120.5t-272 -37.5h-389zM424 231h72q129 0 215 26t149 83q69 61 108.5 153.5t39.5 190.5t-39.5 188t-108.5 152q-66 60 -150.5 85.5t-213.5 25.5h-72v-904 z" />
<glyph unicode="E" horiz-adv-x="1013" d="M158 0v1366h755v-231h-489v-304h471v-231h-471v-369h489v-231h-755z" />
<glyph unicode="F" horiz-adv-x="956" d="M158 0v1366h723v-231h-457v-304h428v-231h-428v-600h-266z" />
<glyph unicode="G" horiz-adv-x="1560" d="M88 676q0 205 93 370t259 258t373 93q191 0 340 -82t246 -240l-234 -125q-125 203 -354 203q-192 0 -320.5 -136.5t-128.5 -340.5q0 -200 127.5 -332.5t319.5 -132.5q146 0 244.5 79.5t113.5 209.5h-321v231h624q-2 -152 -17 -240t-54 -165q-85 -172 -238.5 -264.5 t-355.5 -92.5q-204 0 -368 91t-256.5 253t-92.5 363z" />
<glyph unicode="H" horiz-adv-x="1423" d="M158 0v1366h266v-528h577v528h267v-1366h-267v606h-577v-606h-266z" />
<glyph unicode="I" horiz-adv-x="579" d="M158 0v1366h266v-1366h-266z" />
<glyph unicode="J" horiz-adv-x="798" d="M-55 96l159 195q54 -78 134 -78q41 0 73 22t45 60q19 53 19 192v879h266v-922q0 -141 -29 -232t-92 -151q-105 -94 -256 -94q-181 0 -319 129z" />
<glyph unicode="K" horiz-adv-x="1304" d="M158 0v1366h266v-578l502 578h336l-578 -631l608 -735h-350l-485 614l-33 -32v-582h-266z" />
<glyph unicode="L" horiz-adv-x="870" d="M158 0v1366h266v-1135h420v-231h-686z" />
<glyph unicode="M" horiz-adv-x="1777" d="M84 0l254 1391h182l373 -893l387 893h184l228 -1391h-269l-123 842l-374 -860h-74l-363 860l-137 -842h-268z" />
<glyph unicode="N" horiz-adv-x="1595" d="M158 0v1397h184l832 -951v920h266v-1393h-185l-831 951v-924h-266z" />
<glyph unicode="O" horiz-adv-x="1636" d="M88 692q0 191 98 353.5t266.5 257t368.5 94.5q201 0 368 -94.5t263 -259t96 -361.5q0 -198 -97 -361.5t-266 -257.5t-374 -94q-151 0 -285.5 55.5t-230.5 151.5t-151.5 230.5t-55.5 285.5zM362 688q0 -198 133.5 -336.5t323.5 -138.5q123 0 228 63t166 171.5t61 236.5 q0 195 -134 332t-323 137q-186 0 -320.5 -137.5t-134.5 -327.5z" />
<glyph unicode="P" horiz-adv-x="1095" d="M158 0v1366h399q133 0 214.5 -23.5t146.5 -80.5q66 -60 102.5 -146t36.5 -184q0 -88 -29 -168t-82 -137q-115 -121 -350 -121h-172v-506h-266zM424 737h108q250 0 250 197q0 105 -69 158q-57 43 -197 43h-92v-398z" />
<glyph unicode="Q" horiz-adv-x="1630" d="M88 682q0 148 57 280.5t155 228t234 151t289 55.5q204 0 372 -94t264.5 -258.5t96.5 -364.5q0 -140 -45.5 -255t-146.5 -232l221 -220l-268 -26l-113 125q-173 -103 -377 -103q-154 0 -291.5 55t-235.5 150t-155 227t-57 281zM362 678q0 -198 130.5 -331.5t322.5 -133.5 q62 0 107 12.5t90 42.5l-264 258l276 23l152 -154q106 117 106 287q0 130 -61 238.5t-167 170.5t-233 62q-195 0 -327 -136.5t-132 -338.5z" />
<glyph unicode="R" horiz-adv-x="1177" d="M158 0v1366h395q232 0 348 -96q63 -52 99 -134t36 -173q0 -92 -33 -171.5t-90 -129.5q-78 -67 -188 -87l430 -575h-328l-368 549h-35v-549h-266zM424 737h78q126 0 193 54t67 155t-65 153t-191 52h-82v-414z" />
<glyph unicode="S" horiz-adv-x="1089" d="M68 227l172 166q46 -88 120 -135t166 -47q91 0 151 54.5t60 137.5q0 86 -73 138q-34 25 -191 82q-184 66 -260 149.5t-76 218.5q0 172 121 285t305 113q227 0 402 -152l-140 -182q-52 58 -104 84t-117 26q-81 0 -136.5 -44t-55.5 -107q0 -56 43 -92t163 -80 q113 -41 170 -69.5t103 -67.5q121 -103 121 -287q0 -201 -131.5 -326t-343.5 -125q-148 0 -262.5 63.5t-206.5 196.5z" />
<glyph unicode="T" horiz-adv-x="907" d="M14 1135v231h879v-231h-307v-1135h-267v1135h-305z" />
<glyph unicode="U" horiz-adv-x="1411" d="M158 530v836h266v-782q0 -104 8.5 -152t34.5 -92q34 -58 98.5 -92.5t141.5 -34.5q76 0 140.5 34t98.5 93q26 44 34.5 92t8.5 152v782h266v-836q0 -233 -100 -364q-71 -92 -190 -144.5t-258 -52.5q-140 0 -259.5 52.5t-189.5 144.5q-100 131 -100 364z" />
<glyph unicode="V" horiz-adv-x="1318" d="M2 1366h291l364 -917l369 917h289l-590 -1401h-143z" />
<glyph unicode="W" horiz-adv-x="1998" d="M2 1366h281l307 -930l334 942h145l317 -942l328 930h281l-514 -1393h-187l-303 893l-319 -893h-187z" />
<glyph unicode="X" horiz-adv-x="1280" d="M14 0l484 723l-408 643h320l241 -424l252 424h320l-420 -643l465 -723h-314l-307 500l-317 -500h-316z" />
<glyph unicode="Y" horiz-adv-x="1193" d="M-10 1366h315l295 -475l289 475h317l-479 -739v-627h-266v627z" />
<glyph unicode="Z" horiz-adv-x="1196" d="M43 0l668 1135h-564v231h1004l-666 -1135h629v-231h-1071z" />
<glyph unicode="[" horiz-adv-x="710" d="M178 -328v1862h424v-219h-184v-1424h184v-219h-424z" />
<glyph unicode="\" horiz-adv-x="952" d="M68 1501l172 68l772 -1850l-172 -67z" />
<glyph unicode="]" horiz-adv-x="710" d="M109 -109h186v1424h-186v219h426v-1862h-426v219z" />
<glyph unicode="^" horiz-adv-x="1024" d="M10 684l328 690h350l328 -690h-279l-223 477l-225 -477h-279z" />
<glyph unicode="_" horiz-adv-x="1024" d="M0 -94h1024v-240h-1024v240z" />
<glyph unicode="`" horiz-adv-x="1024" d="M190 1319l181 115l245 -310l-118 -82z" />
<glyph unicode="a" horiz-adv-x="1165" d="M72 444q0 200 124.5 335.5t307.5 135.5q89 0 160 -34t135 -109v115h248v-887h-248v115q-60 -75 -129.5 -109.5t-161.5 -34.5q-186 0 -311 136t-125 337zM328 444q0 -103 73.5 -176t176.5 -73q101 0 174 72.5t73 172.5q0 106 -72 179t-175 73t-176.5 -72.5t-73.5 -175.5z " />
<glyph unicode="b" horiz-adv-x="1165" d="M119 0v1534h248v-762q66 75 136 109t159 34q183 0 307.5 -135.5t124.5 -333.5q0 -202 -125.5 -338.5t-311.5 -136.5q-92 0 -161 34.5t-129 109.5v-115h-248zM340 444q0 -103 73.5 -176t176.5 -73q101 0 174.5 72.5t73.5 172.5q0 105 -72.5 178.5t-175.5 73.5 t-176.5 -72.5t-73.5 -175.5z" />
<glyph unicode="c" horiz-adv-x="854" d="M72 438q0 203 140 340t347 137q122 0 225 -53v-246q-54 41 -99.5 58.5t-100.5 17.5q-110 0 -183 -71.5t-73 -178.5t73 -177t183 -70q57 0 103 16.5t97 56.5v-241q-115 -56 -229 -56q-134 0 -245 61.5t-174.5 169t-63.5 236.5z" />
<glyph unicode="d" horiz-adv-x="1165" d="M72 444q0 200 124.5 335.5t307.5 135.5q89 0 160 -34t135 -109v762h248v-1534h-248v115q-60 -75 -129.5 -109.5t-161.5 -34.5q-186 0 -311 136t-125 337zM328 444q0 -103 73.5 -176t176.5 -73q101 0 174 72.5t73 172.5q0 106 -72 179t-175 73t-176.5 -72.5t-73.5 -175.5z " />
<glyph unicode="e" horiz-adv-x="1060" d="M72 442q0 215 126.5 344t338.5 129q211 0 332.5 -128t121.5 -351v-33h-665q4 -115 60 -176t157 -61q70 0 119 28t92 91l229 -37q-56 -135 -166.5 -206t-267.5 -71q-217 0 -347 128.5t-130 342.5zM334 561h420q-20 86 -74 131t-137 45q-82 0 -137 -46.5t-72 -129.5z" />
<glyph unicode="f" horiz-adv-x="600" d="M31 672v215h96v284q0 97 18.5 158.5t63.5 112.5q51 56 120 86.5t142 30.5q65 0 131 -31v-225q-68 32 -113 32q-33 0 -59.5 -17t-36.5 -46q-18 -40 -18 -137v-248h227v-215h-227v-672h-248v672h-96z" />
<glyph unicode="g" d="M72 432q0 209 123 346t311 137q92 0 159 -33t130 -110v115h247v-854q0 -137 -21 -211.5t-79 -140.5q-132 -156 -373 -156q-269 0 -407 194q-32 46 -47 84.5t-21 92.5h271q38 -160 208 -160q101 0 166 65q56 56 56 185v133q-69 -80 -138.5 -114t-162.5 -34 q-183 0 -302.5 130t-119.5 331zM328 444q0 -103 73.5 -176t176.5 -73q101 0 174 72.5t73 172.5q0 106 -72 179t-175 73t-176.5 -73.5t-73.5 -174.5z" />
<glyph unicode="h" horiz-adv-x="1091" d="M119 0v1534h248v-762q59 77 123 110t155 33q79 0 146.5 -28t111.5 -80q39 -46 54.5 -101.5t15.5 -148.5v-557h-248v485q0 105 -25 148q-19 33 -57.5 52.5t-87.5 19.5q-95 0 -141.5 -61.5t-46.5 -188.5v-455h-248z" />
<glyph unicode="i" horiz-adv-x="477" d="M90 1264q0 60 44.5 103.5t105.5 43.5q62 0 105.5 -43.5t43.5 -105.5t-44 -106t-105 -44q-62 0 -106 44.5t-44 107.5zM115 0v887h247v-887h-247z" />
<glyph unicode="j" horiz-adv-x="477" d="M90 1264q0 60 44.5 103.5t105.5 43.5q62 0 105.5 -43.5t43.5 -105.5t-44 -106t-105 -44q-62 0 -106 44.5t-44 107.5zM115 -473v1360h247v-1360h-247z" />
<glyph unicode="k" horiz-adv-x="1058" d="M119 0v1534h248v-971l331 324h336l-416 -389l449 -498h-342l-332 381l-26 -27v-354h-248z" />
<glyph unicode="l" horiz-adv-x="485" d="M119 0v1534h248v-1534h-248z" />
<glyph unicode="m" horiz-adv-x="1617" d="M119 0v887h248v-103q62 69 125.5 100t144.5 31q93 0 159 -38.5t117 -122.5q103 161 291 161q79 0 146 -34t102 -93q47 -75 47 -215v-573h-248v485q0 96 -20 142q-17 37 -50.5 57.5t-74.5 20.5q-47 0 -86 -24t-59 -65q-27 -58 -27 -161v-455h-248v471q0 105 -18 147 q-15 38 -52.5 62.5t-80.5 24.5q-42 0 -81.5 -22.5t-58.5 -57.5q-28 -52 -28 -170v-455h-248z" />
<glyph unicode="n" horiz-adv-x="1091" d="M119 0v887h248v-111q58 75 122.5 107t155.5 32q78 0 146 -27.5t112 -78.5q38 -44 54 -99.5t16 -146.5v-563h-248v492q0 100 -25 143q-19 32 -57.5 51t-87.5 19q-96 0 -142 -60t-46 -186v-459h-248z" />
<glyph unicode="o" horiz-adv-x="1157" d="M72 451q0 203 143.5 333.5t366.5 130.5q222 0 362.5 -132t140.5 -339q0 -211 -142.5 -342t-369.5 -131q-223 0 -362 133t-139 347zM328 446q0 -105 73.5 -178t178.5 -73q103 0 176 72t73 175q0 104 -73.5 177t-177.5 73q-101 0 -175.5 -73t-74.5 -173z" />
<glyph unicode="p" horiz-adv-x="1165" d="M119 -473v1360h248v-115q60 75 129 109t161 34q186 0 311.5 -135.5t125.5 -337.5q0 -200 -124.5 -335.5t-307.5 -135.5q-89 0 -159 34.5t-136 109.5v-588h-248zM340 444q0 -103 73.5 -176t176.5 -73q101 0 174.5 72.5t73.5 172.5q0 105 -72.5 178.5t-175.5 73.5 t-176.5 -72.5t-73.5 -175.5z" />
<glyph unicode="q" horiz-adv-x="1165" d="M72 442q0 203 124.5 338t311.5 135q92 0 161.5 -34t129.5 -109v115h248v-1360h-248v588q-65 -75 -135.5 -109.5t-159.5 -34.5q-183 0 -307.5 135.5t-124.5 335.5zM328 444q0 -103 73.5 -176t176.5 -73q101 0 174 72.5t73 172.5q0 106 -72 179t-175 73t-176.5 -72.5 t-73.5 -175.5z" />
<glyph unicode="r" horiz-adv-x="737" d="M119 0v887h248v-135q91 163 258 163q53 0 108 -22l-35 -231q-33 18 -56.5 24t-61.5 6q-101 0 -158 -63q-30 -35 -42.5 -81t-12.5 -122v-426h-248z" />
<glyph unicode="s" horiz-adv-x="829" d="M63 119l130 151q104 -104 210 -104q47 0 80 28.5t33 69.5q0 38 -26 59t-111 52q-90 34 -116 45.5t-54 32.5q-88 61 -88 184q0 125 89 204t228 79q159 0 289 -95l-123 -145q-77 57 -147 57q-41 0 -69 -21.5t-28 -53.5q0 -29 29 -49.5t113 -49.5q76 -27 109 -42t63 -38 q98 -67 98 -194q0 -139 -105 -228.5t-268 -89.5q-96 0 -183.5 38.5t-152.5 109.5z" />
<glyph unicode="t" horiz-adv-x="552" d="M23 672v215h98v303h248v-303h176v-215h-176v-672h-248v672h-98z" />
<glyph unicode="u" horiz-adv-x="1095" d="M119 344v543h248v-502q0 -203 182 -203q180 0 180 203v502h248v-543q0 -180 -111 -276.5t-317 -96.5q-207 0 -318.5 96.5t-111.5 276.5z" />
<glyph unicode="v" horiz-adv-x="1028" d="M2 887h279l233 -502l231 502h279l-457 -905h-112z" />
<glyph unicode="w" horiz-adv-x="1622" d="M2 887h279l233 -512l242 536h106l242 -544l237 520h277l-459 -905h-112l-240 538l-236 -538h-114z" />
<glyph unicode="x" horiz-adv-x="1150" d="M2 0l422 481l-342 406h313l185 -230l186 230h315l-348 -406l416 -481h-318l-253 309l-256 -309h-320z" />
<glyph unicode="y" horiz-adv-x="1095" d="M2 887h289l266 -504l252 504h285l-717 -1360h-281l326 608z" />
<glyph unicode="z" horiz-adv-x="993" d="M27 0l503 676h-426v215h863l-502 -676h469v-215h-907z" />
<glyph unicode="{" horiz-adv-x="647" d="M57 508v201q62 14 88.5 52t26.5 113v394q0 149 57 215.5t185 66.5q55 0 90 -2q18 0 51 -2v-209q-62 0 -91.5 -9t-41.5 -32q-19 -31 -19 -137v-315q0 -100 -25 -150.5t-97 -93.5q122 -72 122 -192v-381q0 -103 23 -129q26 -33 104 -33h25v-209l-49 -2l-82 -2 q-136 0 -194 67.5t-58 227.5v432q0 46 -31.5 81.5t-83.5 47.5z" />
<glyph unicode="|" horiz-adv-x="1024" d="M379 -342v1708h266v-1708h-266z" />
<glyph unicode="}" horiz-adv-x="647" d="M92 -135h25q93 0 116 53q11 27 11 125v315q0 100 25.5 150.5t97.5 93.5q-123 72 -123 193v381q0 55 -4.5 84t-22 47.5t-45 23.5t-80.5 6v209q25 2 49 2q35 2 82 2q136 0 194 -67.5t58 -227.5v-432q0 -46 31.5 -80.5t83.5 -46.5v-202q-61 -13 -88 -52t-27 -114v-391 q0 -151 -56.5 -218t-185.5 -67q-55 0 -90 2l-51 2v209z" />
<glyph unicode="~" horiz-adv-x="1366" d="M184 1243q11 27 17 35q39 89 63.5 127t65.5 70q68 53 166 53q65 0 211 -53q97 -36 122 -43t56 -7q49 0 79 22.5t66 84.5l152 -88q-45 -94 -77 -139t-75 -78q-83 -58 -174 -58q-31 0 -72.5 11.5t-138.5 46.5q-81 29 -111 37t-55 8q-55 0 -90 -35q-20 -18 -59 -90z" />
<glyph unicode="&#xa1;" horiz-adv-x="512" d="M96 907q0 64 47.5 111t112.5 47q67 0 114.5 -47t47.5 -113t-47 -114t-113 -48q-67 0 -114.5 48t-47.5 116zM129 -328v973h256v-973h-256z" />
<glyph unicode="&#xa2;" d="M199 684q0 127 58.5 232.5t164.5 170.5q77 47 194 66v156h129v-162q88 -8 162 -41v-254q-53 51 -94.5 70.5t-99.5 19.5q-107 0 -177.5 -74t-70.5 -186q0 -109 70 -181.5t174 -72.5q118 0 198 92v-256q-86 -33 -162 -41v-172h-129v168q-185 23 -301 152.5t-116 312.5z" />
<glyph unicode="&#xa3;" d="M37 16q53 134 123.5 197.5t173.5 69.5q22 57 22 108q0 40 -14 92h-242v187h131q-79 143 -79 276q0 85 37 169.5t100 146.5q141 135 370 135q214 0 333.5 -124t123.5 -351l-268 -29q6 49 6 59q0 91 -60.5 150t-152.5 59q-95 0 -158 -65.5t-63 -163.5q0 -54 15.5 -103.5 t58.5 -136.5q1 -1 2 -3.5t3.5 -8t4.5 -10.5h305v-187h-246q6 -55 6 -77q0 -70 -24 -140q66 -22 139 -45q110 -37 158 -37q86 0 123 109l180 -39q-43 -151 -117 -218t-197 -67q-45 0 -92.5 10.5t-146.5 43.5q-161 51 -223 51q-101 0 -140 -92z" />
<glyph unicode="&#xa4;" horiz-adv-x="1366" d="M39 1268l145 145l213 -213q137 90 287 90q145 0 281 -88l211 209l143 -143l-209 -209q50 -80 71 -146t21 -141q0 -140 -88 -278l211 -211l-143 -146l-211 211q-134 -92 -291 -92q-139 0 -285 90l-211 -209l-143 144l211 211q-90 130 -90 282q0 147 90 281zM403 772 q0 -115 81.5 -196.5t197.5 -81.5t197.5 81.5t81.5 198.5q0 114 -81.5 196.5t-193.5 82.5q-119 0 -201 -81.5t-82 -199.5z" />
<glyph unicode="&#xa5;" d="M14 1366h293l273 -475l270 475h295l-262 -436h153v-187h-266l-72 -129h338v-186h-338v-428h-245v428h-330v186h330l-70 129h-260v187h149z" />
<glyph unicode="&#xa6;" horiz-adv-x="1024" d="M379 313h266v-655h-266v655zM379 655v711h266v-711h-266z" />
<glyph unicode="&#xa7;" d="M150 604q0 129 62 219t171 119q-182 80 -182 277q0 149 102 240t268 91q117 0 212 -45t139 -123q41 -71 47 -200h-248q-6 80 -43 123t-100 43q-57 0 -97.5 -40t-40.5 -96q0 -55 42 -89.5t175 -92.5q120 -52 171.5 -81.5t91.5 -71.5q92 -95 92 -238q0 -238 -240 -352 q186 -85 186 -277q0 -154 -111 -256t-278 -102q-107 0 -192.5 43t-136.5 121q-32 49 -45.5 98t-16.5 127h252q2 -83 41.5 -130.5t108.5 -47.5q62 0 104.5 43.5t42.5 107.5q0 75 -59 121q-41 29 -160 72q-112 38 -165.5 66t-94.5 71q-98 98 -98 260zM408 612 q0 -73 50.5 -125.5t119.5 -52.5q71 0 121.5 52.5t50.5 125.5q0 72 -50 125.5t-118 53.5q-73 0 -123.5 -52.5t-50.5 -126.5z" />
<glyph unicode="&#xa8;" horiz-adv-x="1024" d="M152 1202q0 59 43.5 102.5t103.5 43.5q61 0 104 -43t43 -105q0 -60 -43.5 -103.5t-103.5 -43.5q-61 0 -104 43.5t-43 105.5zM575 1202q0 59 44 102.5t104 43.5q61 0 104 -43t43 -105q0 -60 -43.5 -103.5t-103.5 -43.5q-61 0 -104.5 43.5t-43.5 105.5z" />
<glyph unicode="&#xa9;" horiz-adv-x="1556" d="M68 682q0 147 56.5 279.5t152 228t229 151.5t282.5 56q112 0 218.5 -36.5t192.5 -103t151.5 -154.5t101 -197t35.5 -224q0 -116 -36 -224.5t-101.5 -196.5t-152.5 -154t-195.5 -102t-223.5 -36q-144 0 -275.5 57t-226.5 152.5t-151.5 227.5t-56.5 276zM209 682 q0 -158 76.5 -293t207.5 -214t285 -79q153 0 283 78.5t206 213.5t76 294q0 157 -75.5 292t-204 214.5t-277.5 79.5q-159 0 -292 -77.5t-209 -212t-76 -296.5zM371 678q0 180 133 306t323 126q106 0 220 -53v-223l-23 22q-93 86 -199 86q-109 0 -183.5 -76t-74.5 -188 q0 -109 75 -182.5t187 -73.5q97 0 170 61q3 3 6.5 6t14 13t27.5 26v-223q-119 -51 -222 -51q-191 0 -322.5 123t-131.5 301z" />
<glyph unicode="&#xaa;" horiz-adv-x="694" d="M43 1085q0 118 74.5 199.5t183.5 81.5q102 0 176 -86v70h148v-531h-148v70q-68 -88 -174 -88q-110 0 -185 81.5t-75 202.5zM63 629v112h560v-112h-560zM197 1083q0 -61 43.5 -105t103.5 -44t104 43.5t44 103.5q0 63 -43.5 107.5t-104.5 44.5q-60 0 -103.5 -44.5 t-43.5 -105.5z" />
<glyph unicode="&#xab;" horiz-adv-x="1050" d="M82 444l319 439l144 -101l-248 -338l250 -329l-146 -105zM483 444l320 439l143 -101l-248 -338l250 -329l-145 -105z" />
<glyph unicode="&#xac;" horiz-adv-x="1024" d="M68 307v240h886v-547h-266v307h-620z" />
<glyph unicode="&#xae;" horiz-adv-x="1556" d="M68 682q0 147 56.5 279.5t152 228t229 151.5t282.5 56q112 0 218.5 -36.5t192.5 -103t151.5 -154.5t101 -197t35.5 -224q0 -116 -36 -224.5t-101.5 -196.5t-152.5 -154t-195.5 -102t-223.5 -36q-144 0 -275.5 57t-226.5 152.5t-151.5 227.5t-56.5 276zM209 682 q0 -158 76.5 -293t207.5 -214t285 -79q153 0 283 78.5t206 213.5t76 294q0 157 -75.5 292t-204 214.5t-277.5 79.5q-159 0 -292 -77.5t-209 -212t-76 -296.5zM481 272v820h260q149 0 231.5 -65t82.5 -183q0 -89 -47.5 -150t-135.5 -84l271 -338h-240l-229 318v-318h-193z M674 727h35q149 0 149 107q0 106 -147 106h-37v-213z" />
<glyph unicode="&#xaf;" horiz-adv-x="1024" d="M184 1128v164h656v-164h-656z" />
<glyph unicode="&#xb0;" d="M307 1124q0 109 81.5 189t191.5 80q114 0 194 -79.5t80 -193.5q0 -112 -80 -192t-192 -80q-115 0 -195 80t-80 196zM444 1122q0 -57 40.5 -97t97.5 -40q56 0 95.5 39.5t39.5 95.5t-40 95.5t-97 39.5q-55 0 -95.5 -39.5t-40.5 -93.5z" />
<glyph unicode="&#xb1;" d="M123 -41v164h915v-164h-915zM123 600v164h375v377h164v-377h376v-164h-376v-360h-164v360h-375z" />
<glyph unicode="&#xb2;" horiz-adv-x="792" d="M57 547l248 280q97 109 138.5 177t41.5 118q0 49 -34.5 85t-81.5 36t-78 -36t-31 -91v-14h-182q9 135 87 213t204 78q124 0 207 -77.5t83 -193.5q0 -70 -34.5 -137t-112.5 -151l-129 -138h283v-149h-609z" />
<glyph unicode="&#xb3;" horiz-adv-x="792" d="M74 788h172q6 -57 39.5 -87.5t89.5 -30.5q54 0 89.5 35t35.5 88q0 52 -35 87t-86 35l-39 -2v129q10 -2 29 -2q47 0 75.5 28t28.5 75q0 43 -29 71.5t-73 28.5q-88 0 -103 -102h-162q35 248 275 248q114 0 184 -64.5t70 -167.5q0 -112 -86 -174q55 -25 86 -78.5t31 -122.5 q0 -115 -82 -188.5t-211 -73.5q-126 0 -209.5 75t-89.5 193z" />
<glyph unicode="&#xb4;" horiz-adv-x="1024" d="M410 1124l243 310l183 -115l-308 -277z" />
<glyph unicode="&#xb6;" d="M14 1022q0 98 38.5 174t107.5 117q95 53 266 53h686v-231h-149v-1323h-226v1323h-170v-1323h-225v880h-23q-137 0 -221 91t-84 239z" />
<glyph unicode="&#xb7;" horiz-adv-x="512" d="M96 459q0 66 47.5 112.5t112.5 46.5q67 0 114.5 -46.5t47.5 -112.5q0 -67 -47 -114.5t-113 -47.5q-68 0 -115 47.5t-47 114.5z" />
<glyph unicode="&#xb8;" horiz-adv-x="1024" d="M358 -365l201 273l160 -88l-236 -256z" />
<glyph unicode="&#xb9;" horiz-adv-x="792" d="M199 1217v149h290v-819h-172v670h-118z" />
<glyph unicode="&#xba;" horiz-adv-x="690" d="M43 1090q0 121 85.5 199.5t217.5 78.5q133 0 217 -79t84 -204q0 -126 -85 -205t-220 -79q-132 0 -215.5 80t-83.5 209zM74 629v112h561v-112h-561zM197 1085q0 -62 43 -105.5t106 -43.5q60 0 104 44t44 105t-44 104.5t-106 43.5q-60 0 -103.5 -44t-43.5 -104z" />
<glyph unicode="&#xbb;" horiz-adv-x="1050" d="M102 115l252 329l-250 338l144 101l319 -439l-319 -434zM504 115l250 329l-248 338l143 101l320 -439l-320 -434z" />
<glyph unicode="&#xbc;" horiz-adv-x="1861" d="M188 1217v149h291v-819h-172v670h-119zM459 6l813 1405l108 -61l-813 -1407zM1139 141v76l405 617h152v-551h96v-142h-96v-141h-160v141h-397zM1348 283h188v290z" />
<glyph unicode="&#xbd;" horiz-adv-x="1826" d="M188 1217v149h291v-819h-172v670h-119zM459 6l813 1405l108 -61l-813 -1407zM1106 0l248 281q96 108 138 176.5t42 115.5q0 49 -35 85t-82 36t-77.5 -35t-30.5 -90v-14h-183q9 134 87 211.5t204 77.5q125 0 208 -77t83 -192q0 -70 -34.5 -137t-112.5 -151l-129 -137h282 v-150h-608z" />
<glyph unicode="&#xbe;" horiz-adv-x="1855" d="M61 788h172q6 -57 39.5 -87.5t89.5 -30.5q54 0 89.5 35t35.5 88q0 52 -34.5 87t-85.5 35l-39 -2v129q10 -2 28 -2q47 0 76 28t29 75q0 43 -29.5 71.5t-73.5 28.5q-87 0 -102 -102h-162q35 248 275 248q114 0 184 -64.5t70 -167.5q0 -112 -86 -174q55 -25 85.5 -78 t30.5 -123q0 -115 -82 -188.5t-211 -73.5q-126 0 -209.5 75t-89.5 193zM453 6l813 1405l108 -61l-813 -1407zM1133 141v76l405 617h152v-551h96v-142h-96v-141h-160v141h-397zM1341 283h189v290z" />
<glyph unicode="&#xbf;" horiz-adv-x="1001" d="M82 31q0 140 89 239.5t249 137.5v174h252v-361q-47 8 -72 8q-112 0 -184 -57.5t-72 -146.5q0 -67 45 -112.5t113 -45.5q62 0 103.5 41.5t41.5 103.5q0 15 -2 25h264q2 -12 2 -27q0 -151 -122 -257.5t-295 -106.5q-172 0 -292 112t-120 273zM383 903q0 67 47 114.5 t113 47.5q67 0 114.5 -47.5t47.5 -114.5q0 -66 -47.5 -113t-112.5 -47q-67 0 -114.5 47t-47.5 113z" />
<glyph unicode="&#xc0;" horiz-adv-x="1372" d="M2 0l592 1395h201l573 -1395h-285l-116 289h-559l-123 -289h-283zM391 1724l170 140l281 -273l-109 -100zM494 504h389l-191 491z" />
<glyph unicode="&#xc1;" horiz-adv-x="1372" d="M2 0l592 1395h201l573 -1395h-285l-116 289h-559l-123 -289h-283zM494 504h389l-191 491zM543 1591l280 273l170 -140l-342 -233z" />
<glyph unicode="&#xc2;" horiz-adv-x="1372" d="M2 0l592 1395h201l573 -1395h-285l-116 289h-559l-123 -289h-283zM365 1614l346 282l352 -282l-127 -123l-225 184l-224 -184zM494 504h389l-191 491z" />
<glyph unicode="&#xc3;" horiz-adv-x="1372" d="M2 0l592 1395h201l573 -1395h-285l-116 289h-559l-123 -289h-283zM334 1520q17 120 75.5 189t143.5 69q55 0 164 -41q72 -27 89.5 -32t39.5 -5q29 0 47 15t43 61h141q-25 -124 -88 -192t-153 -68q-48 0 -144 38q-97 39 -135 39q-30 0 -49.5 -17t-34.5 -56h-139zM494 504 h389l-191 491z" />
<glyph unicode="&#xc4;" horiz-adv-x="1372" d="M2 0l592 1395h201l573 -1395h-285l-116 289h-559l-123 -289h-283zM322 1665q0 59 43.5 102t103.5 43q61 0 104 -43t43 -104q0 -60 -43 -103.5t-104 -43.5t-104 43.5t-43 105.5zM494 504h389l-191 491zM754 1665q0 59 43.5 102t103.5 43q62 0 105 -43t43 -104 q0 -60 -43.5 -103.5t-104.5 -43.5t-104 43.5t-43 105.5z" />
<glyph unicode="&#xc5;" horiz-adv-x="1372" d="M2 0l592 1395h201l573 -1395h-285l-116 289h-559l-123 -289h-283zM492 1696q0 77 57 133.5t135 56.5q82 0 138.5 -56t56.5 -136t-57 -137.5t-136 -57.5q-81 0 -137.5 57.5t-56.5 139.5zM494 504h389l-191 491zM608 1694q0 -32 23 -55t55 -23q31 0 53.5 23t22.5 55 q0 31 -22.5 53t-53.5 22q-32 0 -55 -22t-23 -53z" />
<glyph unicode="&#xc6;" horiz-adv-x="1884" d="M14 0l588 1366h721l90 -231h-502l123 -306h496l92 -231h-496l152 -367h504l88 -231h-780l-117 289h-557l-119 -289h-283zM504 504h387l-189 465z" />
<glyph unicode="&#xc7;" horiz-adv-x="1232" d="M88 676q0 196 96.5 362t262.5 262.5t362 96.5q165 0 334 -84v-314q-84 82 -161.5 118t-172.5 36q-189 0 -318 -137t-129 -338q0 -199 129.5 -332t323.5 -133q95 0 170.5 34.5t157.5 114.5v-313q-170 -80 -334 -80q-148 0 -281.5 55.5t-230 149.5t-153 225t-56.5 277z M537 -371l206 285l172 -104l-247 -263z" />
<glyph unicode="&#xc8;" horiz-adv-x="1013" d="M158 0v1366h755v-231h-489v-304h471v-231h-471v-369h489v-231h-755zM254 1724l170 140l281 -273l-109 -100z" />
<glyph unicode="&#xc9;" horiz-adv-x="1013" d="M158 0v1366h755v-231h-489v-304h471v-231h-471v-369h489v-231h-755zM406 1591l280 273l170 -140l-342 -233z" />
<glyph unicode="&#xca;" horiz-adv-x="1013" d="M158 0v1366h755v-231h-489v-304h471v-231h-471v-369h489v-231h-755zM201 1614l346 282l352 -282l-127 -123l-225 184l-223 -184z" />
<glyph unicode="&#xcb;" horiz-adv-x="1013" d="M158 0v1366h755v-231h-489v-304h471v-231h-471v-369h489v-231h-755zM172 1665q0 59 43.5 102t103.5 43q62 0 105 -43t43 -104q0 -60 -43.5 -103.5t-104.5 -43.5t-104 43.5t-43 105.5zM604 1665q0 59 44 102t104 43q62 0 104.5 -43t42.5 -104q0 -60 -43 -103.5t-104 -43.5 t-104.5 43.5t-43.5 105.5z" />
<glyph unicode="&#xcc;" horiz-adv-x="579" d="M-18 1724l170 140l280 -273l-108 -100zM156 0v1366h266v-1366h-266z" />
<glyph unicode="&#xcd;" horiz-adv-x="579" d="M147 1591l281 273l170 -140l-342 -233zM158 0v1366h266v-1366h-266z" />
<glyph unicode="&#xce;" horiz-adv-x="579" d="M-31 1614l320 282l323 -282l-127 -123l-196 184l-197 -184zM158 0v1366h266v-1366h-266z" />
<glyph unicode="&#xcf;" horiz-adv-x="579" d="M-39 1665q0 59 44 102t104 43q61 0 104 -43t43 -104q0 -60 -43 -103.5t-104 -43.5t-104.5 43.5t-43.5 105.5zM158 0v1366h266v-1366h-266zM324 1665q0 59 43.5 102t103.5 43q61 0 104 -43t43 -104q0 -60 -43 -103.5t-104 -43.5t-104 43.5t-43 105.5z" />
<glyph unicode="&#xd0;" horiz-adv-x="1370" d="M43 580v204h115v582h391q297 0 489 -158q115 -93 179.5 -232t64.5 -292t-65.5 -291t-182.5 -235q-99 -83 -215 -120.5t-272 -37.5h-389v580h-115zM424 231h72q129 0 215 26t149 83q69 62 108.5 153t39.5 189q0 99 -39.5 189.5t-108.5 152.5q-66 60 -149.5 85.5 t-214.5 25.5h-72v-351h291v-204h-291v-349z" />
<glyph unicode="&#xd1;" horiz-adv-x="1595" d="M158 0v1397h184l832 -951v920h266v-1393h-185l-831 951v-924h-266zM449 1520q17 120 75.5 189t143.5 69q54 0 163 -41q71 -27 89 -32t41 -5q29 0 47 15t43 61h141q-25 -123 -88 -191.5t-154 -68.5q-29 0 -56.5 7.5t-86.5 30.5q-97 39 -135 39q-30 0 -49.5 -17t-34.5 -56 h-139z" />
<glyph unicode="&#xd2;" horiz-adv-x="1636" d="M88 692q0 191 98 353.5t266.5 257t368.5 94.5q201 0 368 -94.5t263 -259t96 -361.5q0 -198 -97 -361.5t-266 -257.5t-374 -94q-151 0 -285.5 55.5t-230.5 151.5t-151.5 230.5t-55.5 285.5zM362 688q0 -198 133.5 -336.5t323.5 -138.5q123 0 228 63t166 171.5t61 236.5 q0 195 -134 332t-323 137q-186 0 -320.5 -137.5t-134.5 -327.5zM510 1724l170 140l281 -273l-109 -100z" />
<glyph unicode="&#xd3;" horiz-adv-x="1636" d="M88 692q0 191 98 353.5t266.5 257t368.5 94.5q201 0 368 -94.5t263 -259t96 -361.5q0 -198 -97 -361.5t-266 -257.5t-374 -94q-151 0 -285.5 55.5t-230.5 151.5t-151.5 230.5t-55.5 285.5zM362 688q0 -198 133.5 -336.5t323.5 -138.5q123 0 228 63t166 171.5t61 236.5 q0 195 -134 332t-323 137q-186 0 -320.5 -137.5t-134.5 -327.5zM674 1591l280 273l170 -140l-342 -233z" />
<glyph unicode="&#xd4;" horiz-adv-x="1636" d="M88 692q0 191 98 353.5t266.5 257t368.5 94.5q201 0 368 -94.5t263 -259t96 -361.5q0 -198 -97 -361.5t-266 -257.5t-374 -94q-151 0 -285.5 55.5t-230.5 151.5t-151.5 230.5t-55.5 285.5zM362 688q0 -198 133.5 -336.5t323.5 -138.5q123 0 228 63t166 171.5t61 236.5 q0 195 -134 332t-323 137q-186 0 -320.5 -137.5t-134.5 -327.5zM469 1614l346 282l352 -282l-127 -123l-225 184l-223 -184z" />
<glyph unicode="&#xd5;" horiz-adv-x="1636" d="M88 692q0 191 98 353.5t266.5 257t368.5 94.5q201 0 368 -94.5t263 -259t96 -361.5q0 -198 -97 -361.5t-266 -257.5t-374 -94q-151 0 -285.5 55.5t-230.5 151.5t-151.5 230.5t-55.5 285.5zM362 688q0 -198 133.5 -336.5t323.5 -138.5q123 0 228 63t166 171.5t61 236.5 q0 195 -134 332t-323 137q-186 0 -320.5 -137.5t-134.5 -327.5zM467 1520q17 120 75.5 189t143.5 69q55 0 164 -41q72 -27 89.5 -32t39.5 -5q29 0 47 15t43 61h141q-25 -124 -88 -192t-153 -68q-48 0 -144 38q-97 39 -135 39q-30 0 -49.5 -17t-34.5 -56h-139z" />
<glyph unicode="&#xd6;" horiz-adv-x="1636" d="M88 692q0 191 98 353.5t266.5 257t368.5 94.5q201 0 368 -94.5t263 -259t96 -361.5q0 -198 -97 -361.5t-266 -257.5t-374 -94q-151 0 -285.5 55.5t-230.5 151.5t-151.5 230.5t-55.5 285.5zM362 688q0 -198 133.5 -336.5t323.5 -138.5q123 0 228 63t166 171.5t61 236.5 q0 195 -134 332t-323 137q-186 0 -320.5 -137.5t-134.5 -327.5zM455 1665q0 59 43.5 102t103.5 43q62 0 105 -43t43 -104q0 -60 -43.5 -103.5t-104.5 -43.5t-104 43.5t-43 105.5zM887 1665q0 59 43.5 102t103.5 43q62 0 105 -43t43 -104q0 -60 -43.5 -103.5t-104.5 -43.5 t-104 43.5t-43 105.5z" />
<glyph unicode="&#xd7;" d="M180 397l285 285l-285 285l117 116l285 -284l284 284l115 -116l-285 -285l285 -285l-115 -114l-284 284l-285 -284z" />
<glyph unicode="&#xd8;" horiz-adv-x="1648" d="M94 682q0 148 57 280.5t154.5 228t233.5 151t288 55.5q199 0 375 -99l156 187l151 -127l-149 -182q67 -81 90 -121q49 -79 76.5 -178t27.5 -195q0 -143 -56.5 -275t-152 -228t-227 -153t-274.5 -57q-121 0 -230 26.5t-178 72.5l-151 -179l-142 129l138 177 q-60 75 -80 106q-107 172 -107 381zM369 686q0 -77 24 -153t66 -130l577 699q-108 51 -211 51q-187 0 -321.5 -137.5t-134.5 -329.5zM600 270q66 -32 114 -44.5t107 -12.5q190 0 324.5 137.5t134.5 331.5q0 160 -92 283z" />
<glyph unicode="&#xd9;" horiz-adv-x="1411" d="M158 530v836h266v-782q0 -104 8.5 -152t34.5 -92q34 -58 98.5 -92.5t141.5 -34.5q76 0 140.5 34t98.5 93q26 44 34.5 92t8.5 152v782h266v-836q0 -233 -100 -364q-71 -92 -190 -144.5t-258 -52.5q-140 0 -259.5 52.5t-189.5 144.5q-100 131 -100 364zM399 1724l170 140 l281 -273l-109 -100z" />
<glyph unicode="&#xda;" horiz-adv-x="1411" d="M158 530v836h266v-782q0 -104 8.5 -152t34.5 -92q34 -58 98.5 -92.5t141.5 -34.5q76 0 140.5 34t98.5 93q26 44 34.5 92t8.5 152v782h266v-836q0 -233 -100 -364q-71 -92 -190 -144.5t-258 -52.5q-140 0 -259.5 52.5t-189.5 144.5q-100 131 -100 364zM563 1591l281 273 l170 -140l-342 -233z" />
<glyph unicode="&#xdb;" horiz-adv-x="1411" d="M158 530v836h266v-782q0 -104 8.5 -152t34.5 -92q34 -58 98.5 -92.5t141.5 -34.5q76 0 140.5 34t98.5 93q26 44 34.5 92t8.5 152v782h266v-836q0 -233 -100 -364q-71 -92 -190 -144.5t-258 -52.5q-140 0 -259.5 52.5t-189.5 144.5q-100 131 -100 364zM358 1614l347 282 l352 -282l-127 -123l-225 184l-224 -184z" />
<glyph unicode="&#xdc;" horiz-adv-x="1411" d="M158 530v836h266v-782q0 -104 8.5 -152t34.5 -92q34 -58 98.5 -92.5t141.5 -34.5q76 0 140.5 34t98.5 93q26 44 34.5 92t8.5 152v782h266v-836q0 -233 -100 -364q-71 -92 -190 -144.5t-258 -52.5q-140 0 -259.5 52.5t-189.5 144.5q-100 131 -100 364zM344 1665 q0 59 44 102t104 43q62 0 104.5 -43t42.5 -104q0 -60 -43 -103.5t-104 -43.5t-104.5 43.5t-43.5 105.5zM776 1665q0 59 44 102t104 43q62 0 104.5 -43t42.5 -104q0 -60 -43 -103.5t-104 -43.5t-104.5 43.5t-43.5 105.5z" />
<glyph unicode="&#xdd;" horiz-adv-x="1193" d="M-10 1366h315l295 -475l289 475h317l-479 -739v-627h-266v627zM455 1591l280 273l170 -140l-342 -233z" />
<glyph unicode="&#xde;" horiz-adv-x="1099" d="M158 0v1366h266v-192h119q196 0 305 -56q100 -52 155.5 -152t55.5 -225q0 -117 -48.5 -214.5t-133.5 -153.5q-104 -68 -283 -68h-170v-305h-266zM424 553h100q73 0 111 9.5t67 35.5q60 51 60 143q0 95 -59 141t-181 46h-98v-375z" />
<glyph unicode="&#xdf;" horiz-adv-x="1159" d="M119 0v1116q0 206 98 316q55 60 144 93.5t192 33.5q190 0 308 -110.5t118 -289.5q0 -92 -39 -161t-127 -130q59 -25 92.5 -45.5t63.5 -50.5q121 -121 121 -315q0 -172 -95.5 -299.5t-253.5 -165.5q-95 -21 -215 -21v224q65 1 107 13t84 40q55 38 86 96.5t31 126.5 q0 72 -34.5 133.5t-94.5 95.5q-66 38 -179 43v215q50 1 80 9.5t58 27.5q35 26 55 68.5t20 89.5q0 80 -52 131t-134 51q-61 0 -106 -28.5t-60 -77.5q-20 -59 -20 -219v-1010h-248z" />
<glyph unicode="&#xe0;" horiz-adv-x="1165" d="M72 444q0 200 124.5 335.5t307.5 135.5q89 0 160 -34t135 -109v115h248v-887h-248v115q-60 -75 -129.5 -109.5t-161.5 -34.5q-186 0 -311 136t-125 337zM315 1319l181 115l245 -310l-118 -82zM328 444q0 -103 73.5 -176t176.5 -73q101 0 174 72.5t73 172.5q0 106 -72 179 t-175 73t-176.5 -72.5t-73.5 -175.5z" />
<glyph unicode="&#xe1;" horiz-adv-x="1165" d="M72 444q0 200 124.5 335.5t307.5 135.5q89 0 160 -34t135 -109v115h248v-887h-248v115q-60 -75 -129.5 -109.5t-161.5 -34.5q-186 0 -311 136t-125 337zM328 444q0 -103 73.5 -176t176.5 -73q101 0 174 72.5t73 172.5q0 106 -72 179t-175 73t-176.5 -72.5t-73.5 -175.5z M467 1124l244 310l182 -115l-307 -277z" />
<glyph unicode="&#xe2;" horiz-adv-x="1165" d="M72 444q0 200 124.5 335.5t307.5 135.5q89 0 160 -34t135 -109v115h248v-887h-248v115q-60 -75 -129.5 -109.5t-161.5 -34.5q-186 0 -311 136t-125 337zM248 1165l346 283l352 -283l-127 -123l-225 189l-223 -189zM328 444q0 -103 73.5 -176t176.5 -73q101 0 174 72.5 t73 172.5q0 106 -72 179t-175 73t-176.5 -72.5t-73.5 -175.5z" />
<glyph unicode="&#xe3;" horiz-adv-x="1165" d="M72 444q0 200 124.5 335.5t307.5 135.5q89 0 160 -34t135 -109v115h248v-887h-248v115q-60 -75 -129.5 -109.5t-161.5 -34.5q-186 0 -311 136t-125 337zM225 1071q17 119 75.5 187.5t143.5 68.5q62 0 164 -41q70 -26 89.5 -31.5t39.5 -5.5q29 0 47 15t43 61h142 q-25 -122 -88.5 -190t-153.5 -68q-28 0 -55 7t-88 30q-97 39 -138 39q-53 0 -81 -72h-140zM328 444q0 -103 73.5 -176t176.5 -73q101 0 174 72.5t73 172.5q0 106 -72 179t-175 73t-176.5 -72.5t-73.5 -175.5z" />
<glyph unicode="&#xe4;" horiz-adv-x="1165" d="M72 444q0 200 124.5 335.5t307.5 135.5q89 0 160 -34t135 -109v115h248v-887h-248v115q-60 -75 -129.5 -109.5t-161.5 -34.5q-186 0 -311 136t-125 337zM244 1202q0 59 43.5 102.5t103.5 43.5q61 0 104.5 -43t43.5 -105q0 -60 -44 -103.5t-104 -43.5q-61 0 -104 43.5 t-43 105.5zM328 444q0 -103 73.5 -176t176.5 -73q101 0 174 72.5t73 172.5q0 106 -72 179t-175 73t-176.5 -72.5t-73.5 -175.5zM668 1202q0 59 43.5 102.5t103.5 43.5q61 0 104.5 -43t43.5 -105q0 -60 -44 -103.5t-104 -43.5q-61 0 -104 43.5t-43 105.5z" />
<glyph unicode="&#xe5;" horiz-adv-x="1165" d="M72 444q0 200 124.5 335.5t307.5 135.5q89 0 160 -34t135 -109v115h248v-887h-248v115q-60 -75 -129.5 -109.5t-161.5 -34.5q-186 0 -311 136t-125 337zM328 444q0 -103 73.5 -176t176.5 -73q101 0 174 72.5t73 172.5q0 106 -72 179t-175 73t-176.5 -72.5t-73.5 -175.5z M406 1233q0 75 56 130.5t132 55.5q78 0 133 -55t55 -133t-55 -133.5t-133 -55.5t-133 56t-55 135zM522 1231q0 -29 21.5 -50.5t50.5 -21.5t50.5 21.5t21.5 50.5t-21.5 50.5t-50.5 21.5t-50.5 -21.5t-21.5 -50.5z" />
<glyph unicode="&#xe6;" horiz-adv-x="1652" d="M72 260q0 134 97.5 214.5t258.5 80.5q134 0 246 -63q2 16 2 45q0 88 -59 136t-166 48q-120 0 -244 -37v199q128 32 254 32q121 0 199 -35.5t131 -115.5q118 151 335 151q138 0 247.5 -63t160.5 -172q49 -100 49 -246v-31h-670q6 -112 67 -175.5t161 -63.5q69 0 120.5 31 t79.5 90l232 -37q-54 -132 -167.5 -204.5t-268.5 -72.5q-230 0 -346 168q-128 -168 -355 -168q-163 0 -263.5 80t-100.5 209zM311 272q0 -54 48.5 -88t125.5 -34q80 0 134.5 36t54.5 90q0 44 -53.5 73.5t-135.5 29.5q-80 0 -127 -29t-47 -78zM922 561h421q-23 90 -74.5 133 t-135.5 43q-82 0 -133.5 -42.5t-77.5 -133.5z" />
<glyph unicode="&#xe7;" horiz-adv-x="854" d="M72 438q0 203 140 340t347 137q122 0 225 -53v-246q-54 41 -99.5 58.5t-100.5 17.5q-110 0 -183 -71.5t-73 -178.5t73 -177t183 -70q57 0 103 16.5t97 56.5v-241q-115 -56 -229 -56q-134 0 -245 61.5t-174.5 169t-63.5 236.5zM301 -365l201 273l160 -88l-236 -256z" />
<glyph unicode="&#xe8;" horiz-adv-x="1060" d="M72 442q0 215 126.5 344t338.5 129q211 0 332.5 -128t121.5 -351v-33h-665q4 -115 60 -176t157 -61q70 0 119 28t92 91l229 -37q-56 -135 -166.5 -206t-267.5 -71q-217 0 -347 128.5t-130 342.5zM250 1319l180 115l246 -310l-119 -82zM334 561h420q-20 86 -74 131 t-137 45q-82 0 -137 -46.5t-72 -129.5z" />
<glyph unicode="&#xe9;" horiz-adv-x="1060" d="M72 442q0 215 126.5 344t338.5 129q211 0 332.5 -128t121.5 -351v-33h-665q4 -115 60 -176t157 -61q70 0 119 28t92 91l229 -37q-56 -135 -166.5 -206t-267.5 -71q-217 0 -347 128.5t-130 342.5zM334 561h420q-20 86 -74 131t-137 45q-82 0 -137 -46.5t-72 -129.5z M393 1124l244 310l182 -115l-307 -277z" />
<glyph unicode="&#xea;" horiz-adv-x="1060" d="M72 442q0 215 126.5 344t338.5 129q211 0 332.5 -128t121.5 -351v-33h-665q4 -115 60 -176t157 -61q70 0 119 28t92 91l229 -37q-56 -135 -166.5 -206t-267.5 -71q-217 0 -347 128.5t-130 342.5zM197 1165l346 283l352 -283l-127 -123l-225 189l-224 -189zM334 561h420 q-20 86 -74 131t-137 45q-82 0 -137 -46.5t-72 -129.5z" />
<glyph unicode="&#xeb;" horiz-adv-x="1060" d="M72 442q0 215 126.5 344t338.5 129q211 0 332.5 -128t121.5 -351v-33h-665q4 -115 60 -176t157 -61q70 0 119 28t92 91l229 -37q-56 -135 -166.5 -206t-267.5 -71q-217 0 -347 128.5t-130 342.5zM184 1202q0 59 44 102.5t104 43.5q61 0 104 -43t43 -105 q0 -60 -43.5 -103.5t-103.5 -43.5q-61 0 -104.5 43.5t-43.5 105.5zM334 561h420q-20 86 -74 131t-137 45q-82 0 -137 -46.5t-72 -129.5zM608 1202q0 59 44 102.5t104 43.5q61 0 104 -43t43 -105q0 -60 -43.5 -103.5t-103.5 -43.5q-61 0 -104.5 43.5t-43.5 105.5z" />
<glyph unicode="&#xec;" horiz-adv-x="479" d="M-41 1319l180 115l246 -310l-119 -82zM117 0v887h248v-887h-248z" />
<glyph unicode="&#xed;" horiz-adv-x="479" d="M96 1124l244 310l182 -115l-307 -277zM117 0v887h248v-887h-248z" />
<glyph unicode="&#xee;" horiz-adv-x="479" d="M-68 1165l306 283l311 -283l-127 -123l-184 189l-183 -189zM117 0v887h248v-887h-248z" />
<glyph unicode="&#xef;" horiz-adv-x="479" d="M-88 1202q0 59 43.5 102.5t103.5 43.5q61 0 104.5 -43t43.5 -105q0 -60 -44 -103.5t-104 -43.5q-61 0 -104 43.5t-43 105.5zM117 0v887h248v-887h-248zM274 1202q0 59 44 102.5t104 43.5q61 0 104 -43t43 -105q0 -60 -43.5 -103.5t-103.5 -43.5q-61 0 -104.5 43.5 t-43.5 105.5z" />
<glyph unicode="&#xf0;" horiz-adv-x="1157" d="M72 440q0 212 143.5 343.5t374.5 131.5q21 0 39 -2q-68 131 -160 236l-190 -96l-80 164l147 75q-33 25 -53 36.5t-82 39.5q-34 17 -43 21l74 147q62 -21 150 -69.5t128 -82.5l232 115l84 -168l-152 -78q190 -173 295.5 -382t105.5 -412q0 -220 -137 -354t-364 -134 q-224 0 -368 132t-144 337zM328 446q0 -105 73.5 -178t178.5 -73q103 0 176 72.5t73 176.5t-72.5 176t-176.5 72q-103 0 -177.5 -73t-74.5 -173z" />
<glyph unicode="&#xf1;" horiz-adv-x="1091" d="M119 0v887h248v-111q58 75 122.5 107t155.5 32q78 0 146 -27.5t112 -78.5q38 -44 54 -99.5t16 -146.5v-563h-248v492q0 100 -25 143q-19 32 -57.5 51t-87.5 19q-96 0 -142 -60t-46 -186v-459h-248zM188 1071q17 119 76 187.5t144 68.5q61 0 163 -41q70 -26 89.5 -31.5 t39.5 -5.5q29 0 47.5 15.5t43.5 60.5h141q-25 -122 -88.5 -190t-153.5 -68q-28 0 -55 7t-88 30q-97 39 -137 39q-54 0 -82 -72h-140z" />
<glyph unicode="&#xf2;" horiz-adv-x="1157" d="M72 451q0 203 143.5 333.5t366.5 130.5q222 0 362.5 -132t140.5 -339q0 -211 -142.5 -342t-369.5 -131q-223 0 -362 133t-139 347zM297 1319l180 115l246 -310l-119 -82zM328 446q0 -105 73.5 -178t178.5 -73q103 0 176 72t73 175q0 104 -73.5 177t-177.5 73 q-101 0 -175.5 -73t-74.5 -173z" />
<glyph unicode="&#xf3;" horiz-adv-x="1157" d="M72 451q0 203 143.5 333.5t366.5 130.5q222 0 362.5 -132t140.5 -339q0 -211 -142.5 -342t-369.5 -131q-223 0 -362 133t-139 347zM328 446q0 -105 73.5 -178t178.5 -73q103 0 176 72t73 175q0 104 -73.5 177t-177.5 73q-101 0 -175.5 -73t-74.5 -173zM449 1124l243 310 l182 -115l-307 -277z" />
<glyph unicode="&#xf4;" horiz-adv-x="1157" d="M72 451q0 203 143.5 333.5t366.5 130.5q222 0 362.5 -132t140.5 -339q0 -211 -142.5 -342t-369.5 -131q-223 0 -362 133t-139 347zM229 1165l346 283l353 -283l-127 -123l-226 189l-223 -189zM328 446q0 -105 73.5 -178t178.5 -73q103 0 176 72t73 175q0 104 -73.5 177 t-177.5 73q-101 0 -175.5 -73t-74.5 -173z" />
<glyph unicode="&#xf5;" horiz-adv-x="1157" d="M72 451q0 203 143.5 333.5t366.5 130.5q222 0 362.5 -132t140.5 -339q0 -211 -142.5 -342t-369.5 -131q-223 0 -362 133t-139 347zM221 1071q17 119 75.5 187.5t143.5 68.5q62 0 164 -41q70 -26 89.5 -31.5t39.5 -5.5q29 0 47 15t43 61h142q-25 -122 -88.5 -190 t-153.5 -68q-28 0 -55 7t-88 30q-97 39 -138 39q-54 0 -82 -72h-139zM328 446q0 -105 73.5 -178t178.5 -73q103 0 176 72t73 175q0 104 -73.5 177t-177.5 73q-101 0 -175.5 -73t-74.5 -173z" />
<glyph unicode="&#xf6;" horiz-adv-x="1157" d="M72 451q0 203 143.5 333.5t366.5 130.5q222 0 362.5 -132t140.5 -339q0 -211 -142.5 -342t-369.5 -131q-223 0 -362 133t-139 347zM219 1202q0 59 44 102.5t104 43.5q61 0 104 -43t43 -105q0 -60 -43.5 -103.5t-103.5 -43.5q-61 0 -104.5 43.5t-43.5 105.5zM328 446 q0 -105 73.5 -178t178.5 -73q103 0 176 72t73 175q0 104 -73.5 177t-177.5 73q-101 0 -175.5 -73t-74.5 -173zM643 1202q0 59 44 102.5t104 43.5q61 0 104 -43t43 -105q0 -60 -43.5 -103.5t-103.5 -43.5q-61 0 -104.5 43.5t-43.5 105.5z" />
<glyph unicode="&#xf7;" d="M123 600v164h915v-164h-915zM455 344q0 50 37 86.5t88 36.5q52 0 88.5 -36.5t36.5 -88.5q0 -51 -37 -88t-88 -37q-52 0 -88.5 37t-36.5 90zM455 1026q0 50 37 86.5t88 36.5q52 0 88.5 -36.5t36.5 -88.5q0 -51 -37 -88t-88 -37q-52 0 -88.5 37t-36.5 90z" />
<glyph unicode="&#xf8;" horiz-adv-x="1159" d="M72 444q0 207 142 339t364 132q140 0 256 -55l116 141l115 -94l-111 -131q131 -137 131 -334q0 -206 -141 -338.5t-362 -132.5q-131 0 -258 56l-121 -142l-107 95l107 129q-131 134 -131 335zM328 442q0 -66 41 -135l307 365q-50 20 -98 20q-103 0 -176.5 -73.5 t-73.5 -176.5zM481 215q50 -20 97 -20q104 0 177.5 72t73.5 175q0 69 -41 138z" />
<glyph unicode="&#xf9;" horiz-adv-x="1095" d="M119 344v543h248v-502q0 -203 182 -203q180 0 180 203v502h248v-543q0 -180 -111 -276.5t-317 -96.5q-207 0 -318.5 96.5t-111.5 276.5zM266 1319l180 115l246 -310l-119 -82z" />
<glyph unicode="&#xfa;" horiz-adv-x="1095" d="M119 344v543h248v-502q0 -203 182 -203q180 0 180 203v502h248v-543q0 -180 -111 -276.5t-317 -96.5q-207 0 -318.5 96.5t-111.5 276.5zM424 1124l244 310l182 -115l-307 -277z" />
<glyph unicode="&#xfb;" horiz-adv-x="1095" d="M119 344v543h248v-502q0 -203 182 -203q180 0 180 203v502h248v-543q0 -180 -111 -276.5t-317 -96.5q-207 0 -318.5 96.5t-111.5 276.5zM199 1165l346 283l352 -283l-127 -123l-225 189l-223 -189z" />
<glyph unicode="&#xfc;" horiz-adv-x="1095" d="M119 344v543h248v-502q0 -203 182 -203q180 0 180 203v502h248v-543q0 -180 -111 -276.5t-317 -96.5q-207 0 -318.5 96.5t-111.5 276.5zM188 1202q0 59 44 102.5t104 43.5q61 0 104 -43t43 -105q0 -60 -43.5 -103.5t-103.5 -43.5q-61 0 -104.5 43.5t-43.5 105.5z M612 1202q0 59 44 102.5t104 43.5q61 0 104 -43t43 -105q0 -60 -43.5 -103.5t-103.5 -43.5q-61 0 -104.5 43.5t-43.5 105.5z" />
<glyph unicode="&#xfd;" horiz-adv-x="1095" d="M2 887h289l266 -504l252 504h285l-717 -1360h-281l326 608zM418 1124l244 310l182 -115l-307 -277z" />
<glyph unicode="&#xfe;" d="M119 -467v1960h256v-698q63 66 127.5 94.5t150.5 28.5q189 0 313 -135t124 -339q0 -201 -126 -336t-313 -135q-83 0 -147 28t-129 91v-559h-256zM365 440q0 -106 62 -174.5t159 -68.5q100 0 164.5 68.5t64.5 174.5q0 110 -62.5 179t-162.5 69q-99 0 -162 -69.5 t-63 -178.5z" />
<glyph unicode="&#xff;" horiz-adv-x="1095" d="M2 887h289l266 -504l252 504h285l-717 -1360h-281l326 608zM188 1202q0 59 44 102.5t104 43.5q61 0 104 -43t43 -105q0 -60 -43.5 -103.5t-103.5 -43.5q-61 0 -104.5 43.5t-43.5 105.5zM612 1202q0 59 44 102.5t104 43.5q61 0 104 -43t43 -105q0 -60 -43.5 -103.5 t-103.5 -43.5q-61 0 -104.5 43.5t-43.5 105.5z" />
<glyph unicode="&#x10c;" horiz-adv-x="1232" d="M88 676q0 196 96.5 362t262.5 262.5t362 96.5q165 0 334 -84v-314q-84 82 -161.5 118t-172.5 36q-189 0 -318 -137t-129 -338q0 -199 129.5 -332t323.5 -133q95 0 170.5 34.5t157.5 114.5v-313q-170 -80 -334 -80q-148 0 -281.5 55.5t-230 149.5t-153 225t-56.5 277z M430 1776l123 120l223 -182l225 182l127 -120l-352 -285z" />
<glyph unicode="&#x10d;" horiz-adv-x="854" d="M72 438q0 203 140 340t347 137q122 0 225 -53v-246q-54 41 -99.5 58.5t-100.5 17.5q-110 0 -183 -71.5t-73 -178.5t73 -177t183 -70q57 0 103 16.5t97 56.5v-241q-115 -56 -229 -56q-134 0 -245 61.5t-174.5 169t-63.5 236.5zM162 1327l123 121l223 -186l225 186 l127 -121l-352 -285z" />
<glyph unicode="&#x10e;" horiz-adv-x="1370" d="M158 0v1366h391q297 0 489 -158q115 -94 179.5 -232t64.5 -292q0 -152 -65.5 -290.5t-182.5 -235.5q-99 -83 -215 -120.5t-272 -37.5h-389zM262 1776l123 120l223 -182l226 182l127 -120l-353 -285zM424 231h72q129 0 215 26t149 83q69 61 108.5 153.5t39.5 190.5 t-39.5 188t-108.5 152q-66 60 -150.5 85.5t-213.5 25.5h-72v-904z" />
<glyph unicode="&#x10f;" horiz-adv-x="1482" d="M72 444q0 200 124.5 335.5t307.5 135.5q89 0 160 -34t135 -109v762h248v-1534h-248v115q-60 -75 -129.5 -109.5t-161.5 -34.5q-186 0 -311 136t-125 337zM328 444q0 -103 73.5 -176t176.5 -73q101 0 174 72.5t73 172.5q0 106 -72 179t-175 73t-176.5 -72.5t-73.5 -175.5z M1114 1178l148 364l206 -18l-223 -361z" />
<glyph unicode="&#x11a;" horiz-adv-x="1013" d="M158 0v1366h755v-231h-489v-304h471v-231h-471v-369h489v-231h-755zM201 1776l123 120l223 -182l225 182l127 -120l-352 -285z" />
<glyph unicode="&#x11b;" horiz-adv-x="1060" d="M72 442q0 215 126.5 344t338.5 129q211 0 332.5 -128t121.5 -351v-33h-665q4 -115 60 -176t157 -61q70 0 119 28t92 91l229 -37q-56 -135 -166.5 -206t-267.5 -71q-217 0 -347 128.5t-130 342.5zM197 1327l122 121l224 -186l225 186l127 -121l-352 -285zM334 561h420 q-20 86 -74 131t-137 45q-82 0 -137 -46.5t-72 -129.5z" />
<glyph unicode="&#x139;" horiz-adv-x="870" d="M156 1591l280 273l170 -140l-342 -233zM158 0v1366h266v-1135h420v-231h-686z" />
<glyph unicode="&#x13a;" horiz-adv-x="485" d="M119 0v1507h248v-1507h-248zM123 1667l252 248l160 -141l-314 -195z" />
<glyph unicode="&#x13d;" horiz-adv-x="870" d="M158 0v1366h266v-1135h420v-231h-686zM492 1001l147 371l221 -18l-231 -367z" />
<glyph unicode="&#x13e;" horiz-adv-x="804" d="M119 0v1534h248v-1534h-248zM436 1178l148 364l207 -18l-224 -361z" />
<glyph unicode="&#x147;" horiz-adv-x="1595" d="M158 0v1397h184l832 -951v920h266v-1393h-185l-831 951v-924h-266zM451 1776l122 120l224 -182l225 182l127 -120l-352 -285z" />
<glyph unicode="&#x148;" horiz-adv-x="1091" d="M119 0v887h248v-111q58 75 122.5 107t155.5 32q78 0 146 -27.5t112 -78.5q38 -44 54 -99.5t16 -146.5v-563h-248v492q0 100 -25 143q-19 32 -57.5 51t-87.5 19q-96 0 -142 -60t-46 -186v-459h-248zM211 1327l123 121l223 -186l225 186l127 -121l-352 -285z" />
<glyph unicode="&#x152;" horiz-adv-x="2123" d="M88 680q0 145 56.5 278t152 229t227.5 153t277 57q190 0 342 -92q65 -44 139 -123v184h741v-231h-479v-306h459v-231h-459v-367h479v-231h-741v184q-99 -112 -213.5 -163.5t-261.5 -51.5q-148 0 -281 56t-229 151t-152.5 226.5t-56.5 277.5zM362 688q0 -201 126.5 -338 t312.5 -137q190 0 322 136t132 333q0 127 -61.5 235.5t-166.5 172t-228 63.5q-117 0 -218 -63t-160 -170t-59 -232z" />
<glyph unicode="&#x153;" horiz-adv-x="1810" d="M72 440q0 206 139.5 340.5t353.5 134.5q229 0 371 -161q61 83 145 122t201 39q209 0 332.5 -126t124.5 -343v-34v-9h-674q7 -112 67 -175.5t158 -63.5q136 0 207 123l229 -39q-54 -135 -166.5 -206t-273.5 -71q-227 0 -350 172q-85 -95 -168.5 -133.5t-206.5 -38.5 q-212 0 -350.5 132.5t-138.5 336.5zM328 449q0 -107 69 -180.5t170 -73.5q103 0 173.5 72t70.5 179q0 103 -69.5 173.5t-172.5 70.5q-101 0 -171 -70t-70 -171zM1073 561h426q-46 176 -211 176q-166 0 -215 -176z" />
<glyph unicode="&#x154;" horiz-adv-x="1177" d="M158 0v1366h395q232 0 348 -96q63 -52 99 -134t36 -173q0 -92 -33 -171.5t-90 -129.5q-78 -67 -188 -87l430 -575h-328l-368 549h-35v-549h-266zM399 1591l281 273l170 -140l-342 -233zM424 737h78q126 0 193 54t67 155t-65 153t-191 52h-82v-414z" />
<glyph unicode="&#x155;" horiz-adv-x="737" d="M119 0v887h248v-135q91 163 258 163q53 0 108 -22l-35 -231q-33 18 -56.5 24t-61.5 6q-101 0 -158 -63q-30 -35 -42.5 -81t-12.5 -122v-426h-248zM266 1124l244 310l182 -115l-307 -277z" />
<glyph unicode="&#x158;" horiz-adv-x="1177" d="M158 0v1366h395q232 0 348 -96q63 -52 99 -134t36 -173q0 -92 -33 -171.5t-90 -129.5q-78 -67 -188 -87l430 -575h-328l-368 549h-35v-549h-266zM193 1776l122 120l224 -182l225 182l127 -120l-352 -285zM424 737h78q126 0 193 54t67 155t-65 153t-191 52h-82v-414z" />
<glyph unicode="&#x159;" horiz-adv-x="737" d="M53 1327l123 121l223 -186l226 186l127 -121l-353 -285zM119 0v887h248v-135q91 163 258 163q53 0 108 -22l-35 -231q-33 18 -56.5 24t-61.5 6q-101 0 -158 -63q-30 -35 -42.5 -81t-12.5 -122v-426h-248z" />
<glyph unicode="&#x160;" horiz-adv-x="1089" d="M68 227l172 166q46 -88 120 -135t166 -47q91 0 151 54.5t60 137.5q0 86 -73 138q-34 25 -191 82q-184 66 -260 149.5t-76 218.5q0 172 121 285t305 113q227 0 402 -152l-140 -182q-52 58 -104 84t-117 26q-81 0 -136.5 -44t-55.5 -107q0 -56 43 -92t163 -80 q113 -41 170 -69.5t103 -67.5q121 -103 121 -287q0 -201 -131.5 -326t-343.5 -125q-148 0 -262.5 63.5t-206.5 196.5zM223 1776l123 120l223 -182l226 182l127 -120l-353 -285z" />
<glyph unicode="&#x161;" horiz-adv-x="829" d="M63 119l130 151q104 -104 210 -104q47 0 80 28.5t33 69.5q0 38 -26 59t-111 52q-90 34 -116 45.5t-54 32.5q-88 61 -88 184q0 125 89 204t228 79q159 0 289 -95l-123 -145q-77 57 -147 57q-41 0 -69 -21.5t-28 -53.5q0 -29 29 -49.5t113 -49.5q76 -27 109 -42t63 -38 q98 -67 98 -194q0 -139 -105 -228.5t-268 -89.5q-96 0 -183.5 38.5t-152.5 109.5zM92 1327l123 121l223 -186l226 186l127 -121l-353 -285z" />
<glyph unicode="&#x164;" horiz-adv-x="907" d="M14 1135v231h879v-231h-307v-1135h-267v1135h-305zM104 1776l123 120l224 -182l225 182l127 -120l-352 -285z" />
<glyph unicode="&#x165;" horiz-adv-x="804" d="M23 672v215h98v303h248v-303h176v-215h-176v-672h-248v672h-98zM438 987l148 365l207 -19l-224 -360z" />
<glyph unicode="&#x16e;" horiz-adv-x="1411" d="M158 530v836h266v-782q0 -104 8.5 -152t34.5 -92q34 -58 98.5 -92.5t141.5 -34.5q76 0 140.5 34t98.5 93q26 44 34.5 92t8.5 152v782h266v-836q0 -233 -100 -364q-71 -92 -190 -144.5t-258 -52.5q-140 0 -259.5 52.5t-189.5 144.5q-100 131 -100 364zM512 1696 q0 77 57.5 133.5t135.5 56.5q81 0 137.5 -56t56.5 -136t-56.5 -137.5t-135.5 -57.5q-82 0 -138.5 57.5t-56.5 139.5zM629 1694q0 -32 23 -55t55 -23q31 0 53 23t22 55q0 31 -22 53t-53 22q-32 0 -55 -22t-23 -53z" />
<glyph unicode="&#x16f;" horiz-adv-x="1095" d="M119 344v543h248v-502q0 -203 182 -203q180 0 180 203v502h248v-543q0 -180 -111 -276.5t-317 -96.5q-207 0 -318.5 96.5t-111.5 276.5zM358 1233q0 75 56.5 130.5t132.5 55.5q78 0 133 -55t55 -133t-55 -133.5t-133 -55.5t-133.5 56t-55.5 135zM475 1231 q0 -29 21.5 -50.5t50.5 -21.5t50 21.5t21 50.5t-21 50.5t-50 21.5t-50.5 -21.5t-21.5 -50.5z" />
<glyph unicode="&#x178;" horiz-adv-x="1193" d="M-10 1366h315l295 -475l289 475h317l-479 -739v-627h-266v627zM236 1665q0 59 43.5 102t103.5 43q61 0 104 -43t43 -104q0 -60 -43 -103.5t-104 -43.5t-104 43.5t-43 105.5zM668 1665q0 59 43.5 102t103.5 43q62 0 105 -43t43 -104q0 -60 -43.5 -103.5t-104.5 -43.5 t-104 43.5t-43 105.5z" />
<glyph unicode="&#x17d;" horiz-adv-x="1196" d="M43 0l668 1135h-564v231h1004l-666 -1135h629v-231h-1071zM289 1776l123 120l223 -182l225 182l127 -120l-352 -285z" />
<glyph unicode="&#x17e;" horiz-adv-x="993" d="M27 0l503 676h-426v215h863l-502 -676h469v-215h-907zM182 1327l123 121l223 -186l226 186l127 -121l-353 -285z" />
<glyph unicode="&#x2c6;" horiz-adv-x="1024" d="M164 1165l346 283l352 -283l-127 -123l-225 189l-223 -189z" />
<glyph unicode="&#x2da;" horiz-adv-x="1024" d="M324 1233q0 75 56 130.5t132 55.5q78 0 133 -55t55 -133t-55 -133.5t-133 -55.5t-133 56t-55 135zM440 1231q0 -29 21.5 -50.5t50.5 -21.5t50.5 21.5t21.5 50.5t-21.5 50.5t-50.5 21.5t-50.5 -21.5t-21.5 -50.5z" />
<glyph unicode="&#x2dc;" horiz-adv-x="1024" d="M141 1071q17 119 75.5 187.5t143.5 68.5q62 0 164 -41q70 -26 89.5 -31.5t39.5 -5.5q29 0 47 15t43 61h142q-25 -122 -88.5 -190t-153.5 -68q-28 0 -55 7t-88 30q-97 39 -138 39q-53 0 -81 -72h-140z" />
<glyph unicode="&#x2013;" d="M154 367v206h852v-206h-852z" />
<glyph unicode="&#x2014;" horiz-adv-x="1378" d="M0 367v206h1378v-206h-1378z" />
<glyph unicode="&#x2018;" horiz-adv-x="624" d="M88 848l289 545l158 -21l-220 -551z" />
<glyph unicode="&#x2019;" horiz-adv-x="595" d="M47 842l219 551l228 -27l-289 -545z" />
<glyph unicode="&#x201a;" horiz-adv-x="595" d="M47 -268l219 551l228 -27l-289 -543z" />
<glyph unicode="&#x201c;" horiz-adv-x="1009" d="M88 848l289 545l158 -21l-220 -551zM473 848l289 545l158 -21l-218 -551z" />
<glyph unicode="&#x201d;" horiz-adv-x="1009" d="M88 842l219 551l228 -27l-289 -545zM473 842l219 551l228 -27l-289 -545z" />
<glyph unicode="&#x201e;" horiz-adv-x="1009" d="M88 -268l219 551l228 -27l-289 -543zM473 -268l219 551l228 -27l-289 -543z" />
<glyph unicode="&#x2022;" horiz-adv-x="1366" d="M401 692q0 120 83.5 202.5t205.5 82.5q114 0 196.5 -83.5t82.5 -199.5q0 -118 -83 -201t-200 -83t-201 82.5t-84 199.5z" />
<glyph unicode="&#x2026;" horiz-adv-x="1738" d="M129 133q0 66 47.5 113t112.5 47q67 0 114.5 -47t47.5 -113q0 -67 -47 -114.5t-113 -47.5q-67 0 -114.5 47.5t-47.5 114.5zM709 133q0 66 47 113t112 47q67 0 114.5 -47t47.5 -113q0 -67 -47 -114.5t-113 -47.5q-67 0 -114 47t-47 115zM1288 133q0 66 47.5 113t112.5 47 q67 0 114.5 -47t47.5 -113q0 -67 -47 -114.5t-113 -47.5q-68 0 -115 47.5t-47 114.5z" />
<glyph unicode="&#x2039;" horiz-adv-x="649" d="M82 444l319 439l144 -101l-248 -338l250 -329l-146 -105z" />
<glyph unicode="&#x203a;" horiz-adv-x="649" d="M102 115l252 329l-250 338l144 101l319 -439l-319 -434z" />
<glyph unicode="&#x2122;" horiz-adv-x="1476" d="M-6 1212v154h510v-154h-168v-624h-174v624h-168zM532 588l140 792h127l190 -473l201 473h127l125 -792h-174l-60 428l-186 -438h-68l-180 438l-67 -428h-175z" />
<glyph unicode="&#x25fc;" horiz-adv-x="890" d="M0 0v891h891v-891h-891z" />
</font>
</defs>
</svg>
